<svg width="206" height="131" viewBox="0 0 206 131" fill="none" xmlns="http://www.w3.org/2000/svg">
<text fill="#0000006C" xml:space="preserve" style="white-space: pre" font-family="Inter, Helvetica, sans-serif" font-size="32" font-weight="bold" letter-spacing="0em"><tspan x="0" y="44.1364">Start by </tspan><tspan x="0" y="83.1364">uploading </tspan><tspan x="0" y="122.136">a picture.</tspan></text>
<path d="M153 116.5C151.619 116.5 150.5 117.619 150.5 119C150.5 120.381 151.619 121.5 153 121.5L153 116.5ZM187 119L187 121.5L189.5 121.5L189.5 119L187 119ZM188.768 1.23223C187.791 0.255914 186.209 0.255914 185.232 1.23222L169.322 17.1421C168.346 18.1184 168.346 19.7014 169.322 20.6777C170.299 21.654 171.882 21.654 172.858 20.6777L187 6.53553L201.142 20.6777C202.118 21.654 203.701 21.654 204.678 20.6777C205.654 19.7014 205.654 18.1184 204.678 17.1421L188.768 1.23223ZM153 121.5L187 121.5L187 116.5L153 116.5L153 121.5ZM189.5 119L189.5 2.99999L184.5 2.99999L184.5 119L189.5 119Z" fill="#0000006C"/>
</svg>
