<svg
   width="1000"
   height="1000"
   viewBox="0 0 264.58333 264.58333"
   version="1.1"
   xmlns="http://www.w3.org/2000/svg"
   ><defs
     id="defs2" /><g
     id="layer1"><rect
       style="fill:#ffffff;fill-opacity:1;stroke-width:0;stroke-dasharray:none"
       id="rect2377"
       width="361.5578"
       height="329.74072"
       x="-46.279396"
       y="-35.673702" /></g><g
     style="fill:none;stroke-width:0.464469"
     id="g301"
     transform="matrix(0.56964618,0,0,0.56964618,91.277285,91.305577)"><path
       d="M 20.7949,115.712 V 47.9697 c 0,-2.0826 0.8273,-4.0799 2.3,-5.5526 1.4726,-1.4726 3.4699,-2.2999 5.5525,-2.2999 h -8.4375 c -2.0826,0 -4.0799,0.8273 -5.5525,2.2999 -1.4727,1.4727 -2.3,3.47 -2.3,5.5526 v 67.7423 c 0,2.082 0.8273,4.079 2.3,5.552 1.4726,1.473 3.4699,2.3 5.5525,2.3 h 8.4375 c -2.0826,0 -4.0799,-0.827 -5.5525,-2.3 -1.4727,-1.473 -2.3,-3.47 -2.3,-5.552 z"
       fill="#3e61ee"
       fill-opacity="0.2"
       id="path238"
       style="stroke-width:0.154823" /><path
       d="M 74.1256,1.86791 C 72.4359,1.84507 70.7836,2.36614 69.4127,3.35419 68.0418,4.34223 67.0249,5.7449 66.5122,7.35509 63.5844,16.1357 62.0938,18.1101 62.0938,27.3632 v 33.2691 h 8.4375 V 27.3632 c 0,-9.2531 1.4906,-11.2275 4.4184,-20.00811 0.5739,-1.80227 1.7794,-3.33666 3.3947,-4.32084 -1.2737,-0.76589 -2.7325,-1.1692 -4.2188,-1.16634 z"
       fill="#3e61ee"
       fill-opacity="0.2"
       id="path240"
       style="stroke-width:0.154823" /><path
       d="M 123.79,38.531 H 86.0625 v 3.375 H 123.79 c 0.803,-0.01 1.6,0.1393 2.345,0.4394 0.745,0.3001 1.423,0.745 1.994,1.3089 0.572,0.5638 1.026,1.2355 1.337,1.9762 0.31,0.7406 0.47,1.5354 0.472,2.3384 v 58.9061 h -9.891 c 0.502,-1.214 0.757,-2.515 0.75,-3.829 0,-1.598 -0.378,-3.1746 -1.104,-4.5992 -0.726,-1.4246 -1.779,-2.6571 -3.072,-3.5967 -1.294,-0.9395 -2.791,-1.5595 -4.371,-1.8091 -1.579,-0.2496 -3.195,-0.1217 -4.715,0.3732 -0.311,-1.1202 -0.871,-2.1555 -1.638,-3.0283 -0.768,-0.8728 -1.723,-1.5604 -2.795,-2.0113 -1.071,-0.4509 -2.23,-0.6534 -3.3911,-0.5922 -1.1607,0.0613 -2.2925,0.3845 -3.3105,0.9456 -0.6997,-0.9874 -1.6958,-1.726 -2.8438,-2.1089 -1.1479,-0.3828 -2.388,-0.3899 -3.5403,-0.0202 -1.1523,0.3697 -2.1568,1.0969 -2.8677,2.0762 -0.711,0.9792 -1.0914,2.1595 -1.0861,3.3697 v 3.1885 c 0,0.8205 -0.326,1.6074 -0.9061,2.1876 -0.5802,0.5802 -1.3671,0.9061 -2.1876,0.9061 -0.8206,0 -1.6075,-0.3259 -2.1877,-0.9061 C 80.201,96.8407 79.875,96.0538 79.875,95.2333 V 60.7498 H 76.5 v 34.4835 c 0,1.7156 0.6815,3.361 1.8947,4.5741 1.2131,1.2136 2.8584,1.8946 4.5741,1.8946 1.7156,0 3.3609,-0.681 4.574,-1.8946 1.2132,-1.2131 1.8947,-2.8585 1.8947,-4.5741 v -3.1885 c -0.0028,-0.5266 0.1729,-1.0386 0.4986,-1.4523 0.3257,-0.4138 0.782,-0.705 1.2945,-0.8259 0.5124,-0.121 1.0508,-0.0646 1.5271,0.1598 0.4763,0.2245 0.8625,0.6038 1.0954,1.076 -0.9366,1.303 -1.4404,2.8672 -1.4403,4.4719 -0.0092,0.2272 0.0275,0.454 0.108,0.6666 0.0806,0.2127 0.2033,0.4069 0.3608,0.5709 0.1575,0.1641 0.3465,0.2946 0.5557,0.3838 0.2092,0.0891 0.4342,0.1351 0.6616,0.1351 0.2274,0 0.4525,-0.046 0.6617,-0.1351 0.2092,-0.0892 0.3982,-0.2197 0.5557,-0.3838 0.1575,-0.164 0.2802,-0.3582 0.3607,-0.5709 0.0806,-0.2126 0.1173,-0.4394 0.108,-0.6666 0.0035,-1.1107 0.434,-2.1775 1.2023,-2.9796 0.7683,-0.8021 1.8157,-1.2781 2.9252,-1.3293 1.1095,-0.0512 2.1965,0.3262 3.0355,1.0541 0.839,0.728 1.366,1.7506 1.471,2.8563 -0.529,0.4145 -1.016,0.8806 -1.453,1.3913 -0.147,0.1682 -0.259,0.3637 -0.329,0.5754 -0.071,0.2116 -0.099,0.4352 -0.082,0.6577 0.016,0.2225 0.076,0.4396 0.177,0.6387 0.101,0.199 0.24,0.3761 0.41,0.521 0.17,0.1448 0.366,0.2546 0.579,0.323 0.212,0.0683 0.436,0.0938 0.658,0.0751 0.223,-0.0187 0.439,-0.0814 0.637,-0.1843 0.198,-0.103 0.374,-0.2441 0.517,-0.4153 1.122,-1.3205 2.709,-2.1589 4.433,-2.3417 1.723,-0.1828 3.451,0.3039 4.825,1.3594 1.375,1.0556 2.291,2.5989 2.559,4.3109 0.269,1.713 -0.132,3.462 -1.118,4.888 H 27.2708 c -0.4645,-0.926 -0.7019,-1.949 -0.6927,-2.985 -9e-4,-1.47 0.4784,-2.901 1.3651,-4.0746 0.8866,-1.1733 2.1321,-2.025 3.5471,-2.4257 1.4151,-0.4007 2.9222,-0.3283 4.2924,0.2059 1.3702,0.5343 2.5284,1.5014 3.2987,2.7544 0.1163,0.188 0.2687,0.352 0.4484,0.482 0.1797,0.13 0.3832,0.223 0.5989,0.274 0.2157,0.052 0.4394,0.06 0.6583,0.025 0.2189,-0.036 0.4286,-0.114 0.6174,-0.23 0.1887,-0.116 0.3526,-0.269 0.4825,-0.449 0.1298,-0.179 0.2229,-0.383 0.2741,-0.5985 0.0512,-0.2157 0.0594,-0.4393 0.0241,-0.6582 -0.0353,-0.2189 -0.1133,-0.4287 -0.2296,-0.6174 -0.2975,-0.4806 -0.6341,-0.9359 -1.0063,-1.3612 0.139,-1.3456 0.7637,-2.5944 1.757,-3.5127 0.9933,-0.9182 2.2872,-1.443 3.6396,-1.4762 0.7233,-0.011 1.4415,0.1233 2.112,0.395 0.6705,0.2717 1.2796,0.6753 1.7912,1.1868 0.5464,0.5367 0.9812,1.1764 1.2791,1.882 0.2979,0.7057 0.453,1.4634 0.4565,2.2293 0.0019,1.6544 0.66,3.2401 1.8298,4.4101 1.1698,1.17 2.7559,1.828 4.4103,1.83 0.4475,0 0.8767,-0.178 1.1932,-0.495 0.3165,-0.316 0.4943,-0.745 0.4943,-1.193 0,-0.447 -0.1778,-0.877 -0.4943,-1.193 -0.3165,-0.316 -0.7457,-0.494 -1.1932,-0.494 -0.7596,-0.001 -1.4878,-0.303 -2.0249,-0.8405 -0.5371,-0.5371 -0.8393,-1.2653 -0.8402,-2.0249 -0.0034,-1.3807 -0.3199,-2.7426 -0.9256,-3.9833 0.09,-0.5453 0.383,-1.0364 0.8201,-1.3745 0.4371,-0.3382 0.986,-0.4985 1.5365,-0.4486 0.5504,0.0498 1.0616,0.3061 1.4308,0.7173 0.3693,0.4112 0.5693,0.9469 0.5598,1.4995 v 0.9026 c 0,1.7156 0.6816,3.3609 1.8947,4.5741 1.2131,1.2133 2.8585,1.8943 4.5741,1.8943 1.7156,0 3.361,-0.681 4.5741,-1.8943 1.2131,-1.2132 1.8947,-2.8585 1.8947,-4.5741 V 60.7498 h -3.375 v 34.4835 c 0,0.8205 -0.326,1.6074 -0.9062,2.1876 -0.5802,0.5802 -1.3671,0.9061 -2.1876,0.9061 -0.8205,0 -1.6074,-0.3259 -2.1876,-0.9061 -0.5802,-0.5802 -0.9062,-1.3671 -0.9062,-2.1876 V 94.331 c 0.008,-1.1724 -0.355,-2.3174 -1.0369,-3.2712 -0.6819,-0.9538 -1.6479,-1.6677 -2.7599,-2.0395 -1.112,-0.3718 -2.313,-0.3825 -3.4315,-0.0306 -1.1185,0.3518 -2.0971,1.0482 -2.796,1.9897 -1.6248,-1.4045 -3.7104,-2.1607 -5.8578,-2.124 -1.8293,0.0445 -3.6009,0.6484 -5.0766,1.7303 -1.4756,1.0819 -2.5844,2.5899 -3.177,4.3211 -1.5442,-0.8061 -3.2702,-1.2004 -5.0113,-1.1447 -1.7411,0.0556 -3.4384,0.5593 -4.9279,1.4624 -1.4896,0.9031 -2.7211,2.1751 -3.5756,3.6931 -0.8546,1.5184 -1.3032,3.2304 -1.3026,4.9724 -0.0087,1.012 0.142,2.019 0.4464,2.985 h -9.587 V 47.9689 c 0.0011,-0.803 0.1614,-1.5978 0.4717,-2.3384 0.3104,-0.7407 0.7646,-1.4124 1.3363,-1.9762 0.5717,-0.5639 1.2497,-1.0088 1.9945,-1.3089 0.7448,-0.3001 1.5418,-0.4494 2.3448,-0.4394 H 62.1562 V 38.531 H 20.2098 c -1.2461,-0.0095 -2.4817,0.2275 -3.6358,0.6974 -1.1541,0.4699 -2.2038,1.1634 -3.0889,2.0405 -0.885,0.8772 -1.5878,1.9208 -2.0679,3.0706 -0.4802,1.1499 -0.7281,2.3834 -0.7297,3.6294 v 67.7431 c 0.0014,1.247 0.2492,2.48 0.7292,3.631 0.48,1.15 1.1827,2.194 2.0677,3.072 0.885,0.877 1.9347,1.571 3.089,2.042 1.1542,0.47 2.39,0.708 3.6364,0.699 h 34.634 v 15.188 h -6.9751 c -0.4475,0 -0.8767,0.177 -1.1932,0.494 -0.3165,0.316 -0.4943,0.745 -0.4943,1.193 0,0.448 0.1778,0.877 0.4943,1.193 0.3165,0.317 0.7457,0.495 1.1932,0.495 h 49.6756 c 0.4475,0 0.8767,-0.178 1.1932,-0.495 0.3165,-0.316 0.4943,-0.745 0.4943,-1.193 0,-0.448 -0.1778,-0.877 -0.4943,-1.193 -0.3165,-0.317 -0.7457,-0.494 -1.1932,-0.494 H 89.1562 V 125.156 H 123.79 c 1.247,0.009 2.482,-0.229 3.637,-0.699 1.154,-0.471 2.204,-1.165 3.089,-2.042 0.885,-0.878 1.587,-1.922 2.067,-3.072 0.48,-1.151 0.728,-2.384 0.729,-3.631 V 47.9689 c -0.001,-1.246 -0.249,-2.4795 -0.729,-3.6294 -0.48,-1.1498 -1.183,-2.1934 -2.068,-3.0706 -0.885,-0.8771 -1.935,-1.5706 -3.089,-2.0405 -1.154,-0.4699 -2.39,-0.7069 -3.636,-0.6974 z M 85.7812,140.344 H 58.2188 v -15.188 h 27.5624 z m 44.1568,-24.632 c -10e-4,0.804 -0.161,1.599 -0.472,2.34 -0.31,0.741 -0.764,1.413 -1.335,1.978 -0.572,0.564 -1.25,1.009 -1.995,1.31 -0.745,0.301 -1.542,0.451 -2.346,0.441 H 20.2098 c -0.8033,0.01 -1.6006,-0.14 -2.3456,-0.441 -0.745,-0.301 -1.423,-0.746 -1.9947,-1.31 -0.5717,-0.565 -1.0258,-1.237 -1.336,-1.978 -0.3101,-0.741 -0.4702,-1.536 -0.471,-2.34 v -5.462 h 102.9835 0.017 c 0,0 0.019,0 0.028,0 h 12.847 z"
       fill="#3e61ee"
       id="path242"
       style="stroke-width:0.154823" /><path
       d="m 41.3438,72.8438 v 5.7861 c 0.0075,0.4657 0.1913,0.9111 0.5143,1.2466 0.323,0.3355 0.7613,0.5359 1.2263,0.561 h 5.7752 c 0.4677,-0.024 0.9091,-0.2234 1.2363,-0.5584 0.3272,-0.3351 0.5161,-0.7811 0.5291,-1.2492 V 72.8438 H 47.25 v 4.2187 h -2.5312 v -4.2187 z"
       fill="#3e61ee"
       id="path244"
       style="stroke-width:0.154823" /><path
       d="m 112.781,85.3188 c 1.01,0 1.828,-0.8184 1.828,-1.8281 0,-1.0096 -0.818,-1.8281 -1.828,-1.8281 -1.009,0 -1.828,0.8185 -1.828,1.8281 0,1.0097 0.819,1.8281 1.828,1.8281 z"
       fill="#3e61ee"
       id="path246"
       style="stroke-width:0.154823" /><path
       d="M 114.188,78.5688 V 67.0376 c 0,-0.4476 -0.178,-0.8768 -0.495,-1.1932 -0.316,-0.3165 -0.745,-0.4943 -1.193,-0.4943 -0.448,0 -0.877,0.1778 -1.193,0.4943 -0.317,0.3164 -0.495,0.7456 -0.495,1.1932 v 11.5312 c 0,0.4476 0.178,0.8768 0.495,1.1933 0.316,0.3164 0.745,0.4942 1.193,0.4942 0.448,0 0.877,-0.1778 1.193,-0.4942 0.317,-0.3165 0.495,-0.7457 0.495,-1.1933 z"
       fill="#3e61ee"
       id="path248"
       style="stroke-width:0.154823" /><path
       d="m 118.406,76.8813 c 1.01,0 1.828,-0.8184 1.828,-1.8281 0,-1.0096 -0.818,-1.8281 -1.828,-1.8281 -1.009,0 -1.828,0.8185 -1.828,1.8281 0,1.0097 0.819,1.8281 1.828,1.8281 z"
       fill="#3e61ee"
       id="path250"
       style="stroke-width:0.154823" /><path
       d="m 118.125,53.1911 c 0.448,0 0.877,-0.1778 1.193,-0.4943 0.317,-0.3164 0.494,-0.7457 0.494,-1.1932 v -3.0285 c 0,-0.4476 -0.177,-0.8768 -0.494,-1.1932 -0.316,-0.3165 -0.745,-0.4943 -1.193,-0.4943 -0.448,0 -0.877,0.1778 -1.193,0.4943 -0.317,0.3164 -0.494,0.7456 -0.494,1.1932 v 3.0285 c 0,0.4475 0.177,0.8768 0.494,1.1932 0.316,0.3165 0.745,0.4943 1.193,0.4943 z"
       fill="#3e61ee"
       id="path252"
       style="stroke-width:0.154823" /><path
       d="m 116.438,70.131 c 0,0.4476 0.177,0.8768 0.494,1.1932 0.316,0.3165 0.745,0.4943 1.193,0.4943 0.448,0 0.877,-0.1778 1.193,-0.4943 0.317,-0.3164 0.494,-0.7456 0.494,-1.1932 V 57.8179 c 0,-0.4476 -0.177,-0.8768 -0.494,-1.1933 -0.316,-0.3164 -0.745,-0.4942 -1.193,-0.4942 -0.448,0 -0.877,0.1778 -1.193,0.4942 -0.317,0.3165 -0.494,0.7457 -0.494,1.1933 z"
       fill="#3e61ee"
       id="path254"
       style="stroke-width:0.154823" /><path
       d="m 29.8125,86.4438 c 1.0096,0 1.8281,-0.8184 1.8281,-1.8281 0,-1.0096 -0.8185,-1.8281 -1.8281,-1.8281 -1.0096,0 -1.8281,0.8185 -1.8281,1.8281 0,1.0097 0.8185,1.8281 1.8281,1.8281 z"
       fill="#3e61ee"
       id="path256"
       style="stroke-width:0.154823" /><path
       d="M 31.2188,79.6938 V 68.1626 c 0,-0.4476 -0.1778,-0.8768 -0.4943,-1.1932 -0.3165,-0.3165 -0.7457,-0.4943 -1.1933,-0.4943 -0.4475,0 -0.8767,0.1778 -1.1932,0.4943 -0.3165,0.3164 -0.4942,0.7456 -0.4942,1.1932 v 11.5312 c 0,0.4476 0.1777,0.8768 0.4942,1.1933 0.3165,0.3164 0.7457,0.4942 1.1932,0.4942 0.4476,0 0.8768,-0.1778 1.1933,-0.4942 0.3165,-0.3165 0.4943,-0.7457 0.4943,-1.1933 z"
       fill="#3e61ee"
       id="path258"
       style="stroke-width:0.154823" /><path
       d="m 35.4375,78.0063 c 1.0096,0 1.8281,-0.8184 1.8281,-1.8281 0,-1.0096 -0.8185,-1.8281 -1.8281,-1.8281 -1.0096,0 -1.8281,0.8185 -1.8281,1.8281 0,1.0097 0.8185,1.8281 1.8281,1.8281 z"
       fill="#3e61ee"
       id="path260"
       style="stroke-width:0.154823" /><path
       d="m 35.1562,54.3161 c 0.4476,0 0.8768,-0.1778 1.1933,-0.4943 0.3165,-0.3164 0.4943,-0.7457 0.4943,-1.1932 v -3.0285 c 0,-0.4476 -0.1778,-0.8768 -0.4943,-1.1932 -0.3165,-0.3165 -0.7457,-0.4943 -1.1933,-0.4943 -0.4475,0 -0.8767,0.1778 -1.1932,0.4943 -0.3165,0.3164 -0.4942,0.7456 -0.4942,1.1932 v 3.0285 c 0,0.4475 0.1777,0.8768 0.4942,1.1932 0.3165,0.3165 0.7457,0.4943 1.1932,0.4943 z"
       fill="#3e61ee"
       id="path262"
       style="stroke-width:0.154823" /><path
       d="m 33.4688,71.256 c 0,0.4476 0.1777,0.8768 0.4942,1.1932 0.3165,0.3165 0.7457,0.4943 1.1932,0.4943 0.4476,0 0.8768,-0.1778 1.1933,-0.4943 0.3165,-0.3164 0.4943,-0.7456 0.4943,-1.1932 V 58.9429 c 0,-0.4476 -0.1778,-0.8768 -0.4943,-1.1933 -0.3165,-0.3164 -0.7457,-0.4942 -1.1933,-0.4942 -0.4475,0 -0.8767,0.1778 -1.1932,0.4942 -0.3165,0.3165 -0.4942,0.7457 -0.4942,1.1933 z"
       fill="#3e61ee"
       id="path264"
       style="stroke-width:0.154823" /><path
       d="m 97.875,103.6 c 1.0873,0 1.9688,-0.881 1.9688,-1.969 0,-1.087 -0.8815,-1.9684 -1.9688,-1.9684 -1.0873,0 -1.9688,0.8814 -1.9688,1.9684 0,1.088 0.8815,1.969 1.9688,1.969 z"
       fill="#3e61ee"
       id="path266"
       style="stroke-width:0.154823" /><path
       d="m 64.125,89.5376 c 1.0873,0 1.9688,-0.8814 1.9688,-1.9688 0,-1.0873 -0.8815,-1.9687 -1.9688,-1.9687 -1.0873,0 -1.9688,0.8814 -1.9688,1.9687 0,1.0874 0.8815,1.9688 1.9688,1.9688 z"
       fill="#3e61ee"
       id="path268"
       style="stroke-width:0.154823" /><path
       d="m 47.25,100.788 c 1.0873,0 1.9688,-0.8818 1.9688,-1.9692 0,-1.0873 -0.8815,-1.9687 -1.9688,-1.9687 -1.0873,0 -1.9688,0.8814 -1.9688,1.9687 0,1.0874 0.8815,1.9692 1.9688,1.9692 z"
       fill="#3e61ee"
       id="path270"
       style="stroke-width:0.154823" /><path
       d="m 65.9795,23.3945 c 0.4246,0.1415 0.8879,0.1085 1.2882,-0.0916 0.4002,-0.2001 0.7046,-0.551 0.8462,-0.9755 1.0651,-3.1953 3.8042,-4.3335 6.0126,-4.3335 2.2084,0 4.9472,1.1382 6.0123,4.3335 0.1417,0.4246 0.4463,0.7755 0.8467,0.9755 0.4004,0.2 0.8639,0.2327 1.2885,0.091 0.4246,-0.1417 0.7755,-0.4463 0.9755,-0.8467 0.2,-0.4005 0.2327,-0.864 0.091,-1.2885 -0.6447,-1.9339 -1.8815,-3.6159 -3.5352,-4.8078 -1.6537,-1.1919 -3.6405,-1.8332 -5.679,-1.8332 -2.0384,0 -4.0252,0.6413 -5.679,1.8332 -1.6537,1.1919 -2.8905,2.8739 -3.5351,4.8078 -0.0703,0.2103 -0.0984,0.4324 -0.0828,0.6536 0.0156,0.2212 0.0747,0.4371 0.1738,0.6355 0.0991,0.1983 0.2364,0.3752 0.4039,0.5205 0.1675,0.1453 0.362,0.2561 0.5724,0.3262 z"
       fill="#17e5c3"
       id="path272"
       style="stroke-width:0.154823" /><path
       d="M 93.2186,48.5212 C 91.778,48.5217 90.3954,47.9536 89.3714,46.9403 88.3474,45.927 87.7647,44.5505 87.75,43.11 V 27.3639 C 87.75,19.6149 86.7409,16.639 84.823,11.2365 84.3694,9.95874 83.8789,8.51058 83.3161,6.82252 82.6736,4.88902 81.4387,3.20691 79.7864,2.01481 78.1341,0.822708 76.1484,0.181152 74.1109,0.181152 c -2.0374,0 -4.0231,0.641556 -5.6754,1.833658 -1.6523,1.1921 -2.8873,2.87421 -3.5297,4.80771 -0.5625,1.6875 -1.0429,3.13622 -1.4963,4.41398 -1.9181,5.4025 -2.9407,8.3784 -2.9407,16.1274 V 43.11 c -0.0147,1.4405 -0.5974,2.8171 -1.6215,3.8304 -1.0241,1.0133 -2.4068,1.5814 -3.8475,1.5808 -3.6113,0.0019 -7.075,1.4334 -9.6339,3.9816 -2.559,2.5482 -4.0051,6.0059 -4.0221,9.6171 v 11.43 c 0,0.9318 0.8088,1.8253 1.7406,1.8253 h 11.4781 v 3.2549 c 0.0111,0.4673 0.1982,0.9131 0.5239,1.2483 0.3257,0.3352 0.7661,0.5349 1.2328,0.5593 h 5.7752 c 0.4659,-0.0247 0.9053,-0.2248 1.2298,-0.5601 0.3245,-0.3353 0.5101,-0.7809 0.5196,-1.2475 V 70.3127 H 84.375 v 8.3174 c 0.0168,0.4698 0.2092,0.9161 0.5392,1.2508 0.3301,0.3347 0.7736,0.5334 1.2431,0.5568 h 5.7752 c 0.4632,-0.0257 0.8993,-0.2269 1.2195,-0.5627 0.3202,-0.3358 0.5005,-0.7809 0.5042,-1.2449 v -3.2549 h 3.9376 v 3.2549 c 0.0203,0.4713 0.216,0.918 0.5487,1.2524 0.3327,0.3344 0.7784,0.5325 1.2496,0.5552 h 5.7749 c 0.932,0 1.708,-0.8755 1.708,-1.8076 V 62.1208 c -0.017,-3.6115 -1.463,-7.0694 -4.022,-9.6178 -2.559,-2.5484 -6.0229,-3.98 -9.6344,-3.9818 z M 60.4688,77.0627 h -2.5313 v -1.6875 h 2.5313 z m 0,-5.0625 h -15.75 v -1.6875 h 15.75 z m 0,-5.0625 h -15.75 v -4.8178 c 0.016,-2.7165 1.1062,-5.3163 3.0324,-7.2318 1.9262,-1.9155 4.5321,-2.9911 7.2486,-2.9919 2.0402,0 3.7814,-0.7009 5.469,-1.8717 z m 23.9062,0 H 63.8438 v -4.5 H 84.375 Z m 0,-26.1562 V 59.0627 H 63.8438 V 27.3639 c 0,-7.1677 0.8403,-9.6216 2.7492,-14.9982 0.4587,-1.2921 0.963,-2.75627 1.5359,-4.47584 1.0651,-3.195 3.7968,-4.3335 6.0047,-4.3335 2.2078,0 4.9435,1.1385 6.0086,4.3335 0.5729,1.719 1.0434,3.18374 1.5021,4.47584 1.9089,5.3766 2.7307,7.8305 2.7307,14.9982 z m 5.9062,36.2812 H 87.75 v -1.6875 h 2.5312 z m 13.2188,0 h -2.531 v -1.6875 h 2.531 z m 0,-5.0625 H 87.75 v -1.6875 h 15.75 z m 0,-5.0625 H 87.75 V 50.0245 c 1.6875,1.1708 3.4287,1.8717 5.4686,1.8717 2.7166,8e-4 5.3225,1.0764 7.2484,2.9919 1.927,1.9155 3.017,4.5153 3.033,7.2318 z"
       fill="#17e5c3"
       id="path274"
       style="stroke-width:0.154823" /></g></svg>
